<svg id="Layer_1" data-name="Layer 1" xmlns="http://www.w3.org/2000/svg" viewBox="0 0 1000 1000"><defs><style>.cls-1{fill:#171717;}.cls-2{fill:#e6e6e6;}.cls-3,.cls-4,.cls-5{fill:none;stroke-linejoin:bevel;stroke-width:40px;}.cls-3{stroke:#b3b3b3;}.cls-4{stroke:#e6e6e6;}.cls-5{stroke:#fff;}</style></defs><title>Artboard 1</title><rect class="cls-1" x="25" y="25" width="950" height="950"/><path d="M950,50V950H50V50H950m50-50H0V1000H1000V0Z"/><polygon class="cls-2" points="246.13 726.89 479.15 507.5 285.38 723.08 246.13 726.89"/><polygon class="cls-1" points="285.38 723.08 279.82 729.27 235.23 737.15 246.12 726.89 246.13 726.89 285.38 723.08"/><polygon class="cls-3" points="279.82 729.27 270.89 739.2 358.83 715.96 366.44 713.95 784.47 603.49 708.65 316.57 703.33 296.43 695.5 266.8 500.2 484.08 479.15 507.5 285.38 723.08 279.82 729.27"/><polyline class="cls-4" points="246.12 726.89 235.23 737.15 279.82 729.27 350.5 716.77 366.44 713.95 797.83 637.68 737.03 293.76 732.63 268.85 703.33 296.43 526.31 463.1 479.15 507.5 246.13 726.89"/><polyline class="cls-5" points="246.13 726.89 285.38 723.08 350.5 716.77 358.83 715.96 808.55 672.36 769.33 267.81 737.03 293.76 708.65 316.57 526.31 463.1 500.2 484.08 191.45 732.19 246.12 726.89"/><line class="cls-4" x1="246.12" y1="726.89" x2="246.13" y2="726.89"/></svg>